<svg xmlns="http://www.w3.org/2000/svg" version="1.1" xmlns:xlink="http://www.w3.org/1999/xlink" xmlns:svgjs="http://svgjs.dev/svgjs" width="1458" height="560" preserveAspectRatio="none" viewBox="0 0 1458 560"><g mask="url(&quot;#SvgjsMask1024&quot;)" fill="none"><rect width="1458" height="560" x="0" y="0" fill="url(&quot;#SvgjsLinearGradient1025&quot;)"></rect><path d="M1438.664,556.555C1485.349,554.961,1526.806,527.049,1548.554,485.709C1568.9,447.034,1563.493,400.613,1540.13,363.682C1518.381,329.302,1479.249,314.81,1438.664,311.999C1390.911,308.691,1336.47,308.142,1309.53,347.708C1280.158,390.847,1287.511,449.296,1314.958,493.685C1341.03,535.851,1389.117,558.247,1438.664,556.555" fill="rgba(232, 222, 218, 0.51)" class="triangle-float3"></path><path d="M864.152,290.174C881.86,290.35,894.739,274.828,902.694,259.006C909.773,244.927,910.402,228.235,901.999,214.903C894.092,202.357,878.968,198.507,864.152,197.852C847.691,197.125,828.679,197.255,820.032,211.281C811.131,225.719,818.636,243.45,826.915,258.253C835.468,273.547,846.63,290,864.152,290.174" fill="rgba(232, 222, 218, 0.51)" class="triangle-float3"></path><path d="M548.4194883935136 358.5964882686323L648.9550742589045 421.4180946521636 711.7766806424357 320.88250878677275 611.2410947770449 258.0609024032414z" fill="rgba(232, 222, 218, 0.51)" class="triangle-float2"></path><path d="M647.6576834351489-4.335782300151141L509.8327762351212 57.02781993528819 571.1963784705605 194.8527271353159 709.0212856705882 133.48912489987654z" fill="rgba(232, 222, 218, 0.51)" class="triangle-float1"></path><path d="M819.927,301.091C837.29,301.081,856.613,297.514,864.679,282.138C872.417,267.387,862.218,251.114,853.63,236.842C845.431,223.216,835.823,208.253,819.927,207.765C803.453,207.26,790.948,220.541,782.442,234.659C773.574,249.378,766.639,267.225,775.084,282.191C783.628,297.333,802.541,301.101,819.927,301.091" fill="rgba(232, 222, 218, 0.51)" class="triangle-float2"></path><path d="M522.4062254082023 202.62664865951L625.6182276082734 91.94532700115504 514.9369059499185-11.266675198916062 411.72490374984733 99.41464645943891z" fill="rgba(232, 222, 218, 0.51)" class="triangle-float1"></path><path d="M1439.0395612622985 335.68354624567047L1360.502131443663 305.53585153417833 1408.8918665508063 414.22097606430583z" fill="rgba(232, 222, 218, 0.51)" class="triangle-float3"></path><path d="M94.392,715.44C144.236,718.129,186.649,679.147,207.904,633.982C226.432,594.612,213.135,550.059,189.374,513.608C168.08,480.942,133.283,462.661,94.392,459.847C48.786,456.547,-4.939,458.298,-27.809,497.893C-50.683,537.495,-22.117,582.908,0.281,622.781C23.389,663.919,47.277,712.898,94.392,715.44" fill="rgba(232, 222, 218, 0.51)" class="triangle-float2"></path><path d="M1238.0598674370494 285.9769087147516L1288.8141687113337 350.93945192857825 1360.8808328949315 242.3267284102384z" fill="rgba(232, 222, 218, 0.51)" class="triangle-float2"></path><path d="M729.216420129949 390.62099674388855L863.9854582529484 333.4149340558832 806.779395564943 198.64589593288378 672.0103574419436 255.85195862088918z" fill="rgba(232, 222, 218, 0.51)" class="triangle-float2"></path><path d="M1103.3081936232313 436.03335545302997L1194.0053722990697 338.77253895354306 1096.7445557995827 248.07536027770482 1006.0473771237445 345.33617677719167z" fill="rgba(232, 222, 218, 0.51)" class="triangle-float2"></path><path d="M998.1405175116709 82.10531272288762L917.858746241202 174.45892606817836 1010.2123595864927 254.74069733864724 1090.4941308569616 162.3870839933565z" fill="rgba(232, 222, 218, 0.51)" class="triangle-float3"></path><path d="M569.813,587.574C623.809,589.422,686.084,587.198,713.591,540.696C741.383,493.712,716.962,435.614,686.493,390.32C660.017,350.962,617.238,327.925,569.813,326.963C520.467,325.962,470.785,343.554,444.639,385.416C417.005,429.66,414.661,487.056,442.123,531.407C468.359,573.779,520.005,585.87,569.813,587.574" fill="rgba(232, 222, 218, 0.51)" class="triangle-float2"></path><path d="M98.815,87.889C126.213,87.106,149.095,69.67,163.195,46.166C177.784,21.846,185.49,-8.299,171.22,-32.807C157.018,-57.198,127.026,-65.266,98.815,-64.402C72.279,-63.59,47.708,-51.149,33.7,-28.598C18.833,-4.665,13.978,25.446,27.725,50.039C41.764,75.154,70.054,88.711,98.815,87.889" fill="rgba(232, 222, 218, 0.51)" class="triangle-float1"></path><path d="M1197.4933838488662 432.0095612850176L1258.282055748612 362.08019361462635 1188.3526880782208 301.29152171488045 1127.564016178475 371.2208893852717z" fill="rgba(232, 222, 218, 0.51)" class="triangle-float3"></path><path d="M1294.9948356158648 370.5805655788593L1196.055768866759 296.02463111668004 1121.4998344045798 394.96369786578566 1220.4389011536855 469.5196323279649z" fill="rgba(232, 222, 218, 0.51)" class="triangle-float1"></path><path d="M172.836,426.336C216.218,425.597,247.531,390.811,270.292,353.873C294.641,314.358,319.096,266.757,295.962,226.52C272.787,186.212,219.329,184.794,172.836,184.369C125.252,183.934,70.161,183.386,45.744,224.23C20.967,265.675,43.754,316.415,69.459,357.292C93.102,394.889,128.429,427.092,172.836,426.336" fill="rgba(232, 222, 218, 0.51)" class="triangle-float3"></path><path d="M834.717,258.21C866.389,260.261,899.783,246.861,914.237,218.606C927.838,192.018,911.56,162.814,896.799,136.852C881.784,110.442,865.046,80.504,834.717,78.741C802.258,76.854,772.944,99.582,758.731,128.825C746.005,155.008,756.496,184.241,771.239,209.344C785.733,234.023,806.157,256.36,834.717,258.21" fill="rgba(232, 222, 218, 0.51)" class="triangle-float2"></path><path d="M269.9370489190914 405.9817420367178L403.8031012649214 441.8510426567254 439.672401884929 307.9849903108954 305.806349539099 272.1156896908878z" fill="rgba(232, 222, 218, 0.51)" class="triangle-float3"></path></g><defs><mask id="SvgjsMask1024"><rect width="1458" height="560" fill="#ffffff"></rect></mask><linearGradient x1="50%" y1="0%" x2="50%" y2="100%" gradientUnits="userSpaceOnUse" id="SvgjsLinearGradient1025"><stop stop-color="#0e2a47" offset="0"></stop><stop stop-color="rgba(0, 0, 0, 1)" offset="1"></stop></linearGradient><style>
                @keyframes float1 {
                    0%{transform: translate(0, 0)}
                    50%{transform: translate(-10px, 0)}
                    100%{transform: translate(0, 0)}
                }

                .triangle-float1 {
                    animation: float1 5s infinite;
                }

                @keyframes float2 {
                    0%{transform: translate(0, 0)}
                    50%{transform: translate(-5px, -5px)}
                    100%{transform: translate(0, 0)}
                }

                .triangle-float2 {
                    animation: float2 4s infinite;
                }

                @keyframes float3 {
                    0%{transform: translate(0, 0)}
                    50%{transform: translate(0, -10px)}
                    100%{transform: translate(0, 0)}
                }

                .triangle-float3 {
                    animation: float3 6s infinite;
                }
            </style></defs></svg>